<?xml version="1.0" encoding="iso-8859-1"?>
<!-- Generator: Adobe Illustrator 19.0.0, SVG Export Plug-In . SVG Version: 6.00 Build 0)  -->
<svg version="1.1" id="Capa_1" xmlns="http://www.w3.org/2000/svg" xmlns:xlink="http://www.w3.org/1999/xlink" x="0px" y="0px"
	 viewBox="0 0 512 512" style="enable-background:new 0 0 512 512;" xml:space="preserve">
<g>
	<path style="fill:#FE9E59;" d="M426,372c0-42.257-23.833-89.119-58.794-113.378c-6.935-4.812-14.305-8.74-22.016-11.561
		c-19.503,15.561-43.455,26.117-69.74,29.641C269.093,277.554,262.601,278,256,278c-24.465,0-47.456-6.063-67.467-16.698l10.8-5.302
		l-4.376-4.185c-80.439,22.323-78.231,93.349-68.982,135.591c1.611,11.493,4.993,22.415,9.875,32.485
		c-0.63,4.12-0.95,8.18-0.95,12.11c0,31.911,21.361,58.816,50.559,67.243c9.556-2.762,18.278-7.494,25.681-13.743
		c9.701,3.017,20.039,4.97,30.802,5.886C246.556,491.778,251.241,492,256,492c6.626,0,13.116-0.405,19.45-1.165
		c8.827-1.058,17.34-2.826,25.41-5.335c2.544,2.151,5.253,4.112,8.09,5.887C319.695,498.108,332.393,502,346,502
		c6.747,0,13.262-0.974,19.435-2.755C394.636,490.82,416,463.914,416,432c0-3.93-0.32-7.99-0.95-12.11
		C422.07,405.41,426,389.17,426,372z"/>
	<path style="fill:#FE9E59;" d="M345.19,247.061c-0.608-0.222-1.217-0.442-1.83-0.651c30.44-23.39,50.5-58.46,52.48-97.1
		c0.001,0,0.002,0,0.003,0c0.1-2.092,0.157-4.194,0.157-6.31c0-46.165-24.036-86.91-60.693-111.254
		c-0.22,0.231-0.451,0.451-0.667,0.684l-0.43,0.67c-11.274-7.326-23.717-13.136-37.001-17.1C227.533,26.078,174,86.033,174,158.5
		c0,48.859,24.338,92.027,61.547,118.061C242.224,277.504,249.052,278,256,278C289.892,278,320.969,266.385,345.19,247.061z"/>
	<path style="fill:#FE9E59;" d="M456,80c0-38.66-31.34-70-70-70c-9.127,0-17.836,1.768-25.83,4.95
		c13.609,10.43,25.558,22.781,35.413,36.629C407.438,55.589,416,66.811,416,80c0,2.62-0.342,5.161-0.976,7.584
		c6.092,15.686,9.818,32.481,10.763,49.991C444.036,124.943,456,103.876,456,80z"/>
</g>
<path style="fill:#FFFFFF;" d="M341.5,432c0-13.76,7.09-28.94,14.97-38.92c0.756-0.96,1.519-1.866,2.284-2.724
	C354.16,385.209,349.506,382,346,382c-4.09,0-9.74,4.36-15.03,11.08C323.09,403.06,316,418.24,316,432c0,16.54,13.46,30,30,30
	c4.557,0,8.878-1.026,12.75-2.853C348.567,454.345,341.5,443.983,341.5,432z"/>
<path style="fill:#CC7940;" d="M376,432c0-15.077-8.514-31.862-17.246-41.644c-0.765,0.858-1.528,1.764-2.284,2.724
	c-7.88,9.98-14.97,25.16-14.97,38.92c0,11.983,7.067,22.345,17.25,27.147C368.933,454.345,376,443.983,376,432z"/>
<path style="fill:#FD7FA9;" d="M256,146c16.57,0,30,8.95,30,20s-13.43,20-30,20s-30-8.95-30-20S239.43,146,256,146z"/>
<path style="fill:#FFFFFF;" d="M162.333,432c0-14.84,8.248-31.323,16.833-41.167C174.44,385.414,169.611,382,166,382
	c-10.17,0-30,26.99-30,50c0,16.54,13.46,30,30,30c4.721,0,9.189-1.1,13.167-3.052C169.208,454.062,162.333,443.819,162.333,432z"/>
<g>
	<path style="fill:#CC7940;" d="M196,432c0-14.84-8.248-31.323-16.833-41.167c-8.585,9.843-16.833,26.327-16.833,41.167
		c0,11.819,6.875,22.062,16.833,26.948C189.125,454.062,196,443.819,196,432z"/>
	<path style="fill:#CC7940;" d="M146.91,58.51l0.89,0.77c-12.59,14.63-21.99,31.75-27.18,50.3h-0.01l-0.7-0.2
		C106.28,106.55,96,94.46,96,80c0-16.54,13.46-30,30-30C134.13,50,141.51,53.25,146.91,58.51z"/>
	<path style="fill:#CC7940;" d="M396.654,105.723L395.51,106c-4.587-18.748-13.055-36.348-25.133-51.353l0.006-0.008l0.57-0.453
		c10.225-9.446,26.038-10.784,37.805-2.38c13.459,9.614,16.589,28.39,6.975,41.849C411.007,100.27,404.073,104.386,396.654,105.723z
		"/>
</g>
<path style="fill:#FFFFFF;" d="M231.74,273.952c-13.754-2.338-26.82-6.615-38.88-12.522c-29.02,19.49-49.8,52.02-55.37,90.03v0.01
	c8.71-5.93,18.36-9.47,28.51-9.47c6.256,0,12.318,1.351,18.089,3.769C192.787,316.938,209.628,291.983,231.74,273.952z"/>
<path style="fill:#CC7940;" d="M236,432c0,21.46-9.66,40.66-24.86,53.5c13.86,4.31,29,6.5,44.86,6.5s31-2.19,44.86-6.5
	c-10.33-8.73-18.11-20.39-22.02-33.71c-1.85-6.28-2.84-12.92-2.84-19.79c0-38.66,31.34-90,70-90c10.15,0,19.8,3.54,28.51,9.47v-0.01
	c-5.57-38.01-26.35-70.54-55.37-90.03C300.17,270.72,278.72,276,256,276c-8.276,0-16.38-0.708-24.26-2.048
	c-22.112,18.031-38.953,42.986-47.651,71.817C213.98,358.291,236,399.596,236,432z"/>
<path d="M296,96c-5.52,0-10,4.48-10,10s4.48,10,10,10s10-4.48,10-10S301.52,96,296,96z"/>
<path d="M216,116c5.52,0,10-4.48,10-10s-4.48-10-10-10s-10,4.48-10,10S210.48,116,216,116z"/>
<path d="M216,312c-5.52,0-10,4.48-10,10s4.48,10,10,10s10-4.48,10-10S221.52,312,216,312z"/>
<path d="M386,0c-19.707,0-38.772,7.38-53.376,20.436C309.392,7.057,283.08,0,256,0c-27.079,0-53.39,7.056-76.623,20.437
	C164.773,7.381,145.708,0,126,0C81.888,0,46,35.888,46,80c0,36.931,25.671,69.004,60.813,77.667
	c3.584,32.329,18.932,62.692,43.285,85.986C106.801,266.919,76,321.593,76,372c0,17.28,3.584,33.905,10.65,49.468
	C86.222,425.037,86,428.568,86,432c0,44.112,35.888,80,80,80c17.026,0,33.601-5.473,47.266-15.48
	c13.4,3.632,27.746,5.48,42.734,5.48c14.987,0,29.331-1.848,42.73-5.479C312.378,506.527,328.954,512,346,512
	c44.112,0,80-35.888,80-80c0-3.435-0.223-6.97-0.65-10.533C432.416,405.905,436,389.28,436,372
	c0-50.377-30.78-105.07-74.098-128.347c24.36-23.302,39.709-53.67,43.288-85.994C440.365,148.956,466,116.903,466,80
	C466,35.888,430.112,0,386,0z M106.172,136.62C82.628,128.336,66,105.744,66,80c0-33.084,26.916-60,60-60
	c13.045,0,25.712,4.321,36.041,12.065c-5.44,4.22-10.578,8.791-15.376,13.696C140.484,42.013,133.385,40,126,40
	c-22.056,0-40,17.944-40,40c0,15.584,9.155,29.529,22.753,36.072C107.357,122.851,106.503,129.721,106.172,136.62z M106,80
	c0-11.028,8.972-20,20-20c2.551,0,5.033,0.487,7.344,1.403c-7.936,10.782-14.33,22.589-18.9,34.89C109.298,92.62,106,86.608,106,80z
	 M96,372c0-47.874,31.482-97.869,71.101-114.305c2.474,1.76,5,3.453,7.583,5.066c-24.108,20.812-40.632,50.2-46.406,83.046
	c-12.638,9.706-23.661,24.179-31.283,40.419C96.333,381.555,96,376.808,96,372z M204.689,477.858
	C193.887,486.978,180.146,492,166,492c-33.084,0-60-26.916-60-60c0-33.231,27.627-80,60-80c32.472,0,60,46.607,60,80
	C226,449.703,218.232,466.419,204.689,477.858z M256,482c-8.934,0-17.575-0.748-25.853-2.201C240.356,466.114,246,449.418,246,432
	c0-43.521-34.87-100-80-100c-4.832,0-9.621,0.65-14.347,1.921c7.548-24.65,22.326-46.092,42.268-60.983
	C213.483,281.6,234.334,286,256,286c21.667,0,42.52-4.401,62.08-13.061c19.942,14.891,34.72,36.332,42.268,60.982
	C355.621,332.65,350.832,332,346,332c-45.148,0-80,56.506-80,100c0,7.688,1.092,15.295,3.246,22.608
	c2.682,9.135,6.959,17.637,12.602,25.191C273.571,481.252,264.932,482,256,482z M346,492c-14.166,0-27.903-5.021-38.685-14.138
	c-9.048-7.647-15.577-17.637-18.88-28.889c-0.001-0.003-0.002-0.006-0.002-0.009C286.818,443.484,286,437.776,286,432
	c0-33.649,27.725-80,60-80c32.609,0,60,47.107,60,80C406,465.084,379.084,492,346,492z M416,372c0,4.81-0.334,9.557-0.995,14.23
	c-7.624-16.245-18.647-30.719-31.283-40.423c-5.774-32.846-22.298-62.234-46.406-83.046c2.583-1.613,5.11-3.306,7.583-5.066
	C384.519,274.132,416,324.126,416,372z M385.731,150.66C381.458,213.604,325.029,266,256,266
	c-69.2,0-125.404-52.589-129.724-115.233c0.19-1.322,0.117-2.621-0.204-3.886C123.755,78.592,183.122,20,256,20
	c60.386,0,111.162,40.132,125.75,92.274C387.886,133.942,385.484,148.812,385.731,150.66z M397.556,96.293
	c-4.569-12.3-10.964-24.107-18.9-34.89C380.968,60.487,383.449,60,386,60c11.028,0,20,8.972,20,20
	C406,86.608,402.702,92.62,397.556,96.293z M405.828,136.62c-0.331-6.899-1.185-13.769-2.581-20.549
	C416.845,109.529,426,95.584,426,80c0-22.056-17.944-40-40-40c-7.385,0-14.484,2.013-20.665,5.761
	c-4.798-4.905-9.936-9.476-15.377-13.696C360.289,24.321,372.955,20,386,20c33.084,0,60,26.916,60,60
	C446,105.744,429.372,128.336,405.828,136.62z"/>
<path d="M296,206c-5.523,0-10,4.478-10,10c0,5.514-4.486,10-10,10c-2.668,0-5.179-1.041-7.068-2.931
	c-1.891-1.89-2.932-4.401-2.932-7.069v-20.91c17.438-3.25,30-14.867,30-29.09c0-16.822-17.57-30-40-30s-40,13.178-40,30
	c0,14.223,12.562,25.839,30,29.09V216c0,5.514-4.486,10-10,10c-2.668,0-5.179-1.041-7.068-2.931
	c-1.891-1.89-2.932-4.401-2.932-7.069c0-5.522-4.477-10-10-10s-10,4.478-10,10c0,8.01,3.121,15.542,8.789,21.211
	C220.457,242.879,227.99,246,236,246c7.673,0,14.68-2.899,19.99-7.655C261.5,243.292,268.542,246,276,246c16.542,0,30-13.458,30-30
	C306,210.478,301.523,206,296,206z M236,166c0-4.077,7.791-10,20-10c12.209,0,20,5.923,20,10s-7.791,10-20,10S236,170.077,236,166z"
	/>
<path d="M346,372c-19.103,0-40,35.693-40,60c0,22.056,17.944,40,40,40s40-17.944,40-40C386,407.315,364.882,372,346,372z M346,452
	c-11.028,0-20-8.972-20-20c0-15.95,12.563-35.296,20.038-39.726C351.795,395.46,366,414.468,366,432
	C366,443.028,357.028,452,346,452z"/>
<path d="M166,372c-19.085,0-40,35.621-40,60c0,22.056,17.944,40,40,40s40-17.944,40-40C206,407.315,184.882,372,166,372z M166,452
	c-11.028,0-20-8.972-20-20c0-17.57,14.267-36.623,20-39.747c5.733,3.124,20,22.177,20,39.747C186,443.028,177.028,452,166,452z"/>
<path d="M306,322c0-5.522-4.477-10-10-10h-40c-5.523,0-10,4.478-10,10s4.477,10,10,10h40C301.523,332,306,327.522,306,322z"/>
<g>
</g>
<g>
</g>
<g>
</g>
<g>
</g>
<g>
</g>
<g>
</g>
<g>
</g>
<g>
</g>
<g>
</g>
<g>
</g>
<g>
</g>
<g>
</g>
<g>
</g>
<g>
</g>
<g>
</g>
</svg>
